<svg width="36" height="36" viewBox="0 0 36 36" fill="none" xmlns="http://www.w3.org/2000/svg">
<rect width="36" height="36" rx="18" fill="#2D2F33"/>
<path d="M16.8643 23.423C17.346 23.423 17.6846 23.0845 17.6846 22.6287C17.6846 22.3813 17.5804 22.186 17.4307 22.0298L15.9593 20.5519L14.3057 19.035L15.7705 19.1196H23.4007C23.9085 19.1196 24.2536 18.7811 24.2536 18.2863C24.2536 17.7915 23.9085 17.453 23.4007 17.453H15.7705L14.3057 17.5311L15.9593 16.0207L17.4307 14.5363C17.5869 14.38 17.6846 14.1847 17.6846 13.9373C17.6846 13.4881 17.346 13.1431 16.8643 13.1431C16.6559 13.1431 16.4541 13.2277 16.2653 13.41L12.0075 17.6678C11.8447 17.8241 11.7471 18.0584 11.7471 18.2863C11.7471 18.5142 11.8447 18.742 12.0075 18.9048L16.2783 23.1626C16.4541 23.3384 16.6559 23.423 16.8643 23.423Z" fill="white"/>
</svg>
