

<svg width="36" height="36" viewBox="0 0 36 36" fill="none" xmlns="http://www.w3.org/2000/svg">
<rect width="36" height="36" rx="18" fill="#2D2F33"/>
<path d="M19.1364 23.423C19.3447 23.423 19.5465 23.3384 19.7223 23.1626L23.9932 18.9048C24.1559 18.742 24.2536 18.5142 24.2536 18.2863C24.2536 18.0584 24.1559 17.8241 23.9932 17.6678L19.7354 13.41C19.5531 13.2277 19.3447 13.1431 19.1364 13.1431C18.6546 13.1431 18.3161 13.4881 18.3161 13.9373C18.3161 14.1847 18.4202 14.38 18.57 14.5363L20.0479 16.0207L21.695 17.5311L20.2301 17.453H12.6064C12.0921 17.453 11.7471 17.7915 11.7471 18.2863C11.7471 18.7811 12.0921 19.1196 12.6064 19.1196H20.2301L21.695 19.035L20.0479 20.5519L18.57 22.0298C18.4202 22.186 18.3161 22.3813 18.3161 22.6287C18.3161 23.0845 18.6546 23.423 19.1364 23.423Z" fill="white"/>
</svg>
